<svg width="23" height="23" viewBox="0 0 23 23" xmlns="http://www.w3.org/2000/svg"><title>Logo-galandra</title><g fill="none" fill-rule="evenodd"><path d="M23 11.5C23 17.851 17.851 23 11.5 23S0 17.851 0 11.5 5.149 0 11.5 0 23 5.149 23 11.5" fill="#657176"/><path d="M11.851 10.64c-.468.936-.936 1.263-1.217 1.263-.187 0-.328-.187-.328-.374 0-1.451 1.124-4.26 1.826-4.26.28 0 .562.187.562.28 0 .469-.515 2.388-.843 3.09m-1.638 5.945c-.14.188-.375.328-.562.328-.094 0-.281-.14-.281-.234 0-.28.234-.655 1.358-1.404-.235.749-.422 1.17-.515 1.31m4.61-5.348c-.263.223-.55.436-.865.667.702-2.434 1.217-4.54 1.217-4.821 0-.421-.936-.656-1.592-.656 0 0-.89-.889-2.2-.889-1.592.094-3.558 3.698-3.558 5.898 0 .89 1.405 2.013 2.34 2.013.656 0 1.405-.702 1.405-.702s-.093.328-.374 1.03c-1.124.749-1.78 1.123-2.435 1.638-.514.375-.702.796-.702 1.404 0 .562 1.17 1.639 2.2 1.639.656 0 1.639-.234 1.967-.796.327-.562.889-2.34 1.45-4.213.332-.207.485-.3.923-.593.588-.415.552-1.142.481-1.53a.157.157 0 0 0-.256-.089" fill="#FFF"/></g></svg>